<?xml version="1.0" encoding="utf-8"?>
<svg width="166px" height="49px" viewBox="0 0 166 49" version="1.1" xmlns:xlink="http://www.w3.org/1999/xlink" xmlns="http://www.w3.org/2000/svg">
  <desc>Created with Lunacy</desc>
  <g id="logo">
    <path d="M0 0L166 0L166 49L0 49L0 0Z" id="Background" fill="none" stroke="none" />
    <g id="Group" transform="translate(0 0.0289917)">
      <path d="M0 13.13L0 13.253L27.95 26.383L56 13.209L56 13.176L27.95 0L0 13.13ZM27.95 4.79501L10.077 13.192L10.076 13.192L27.95 21.588L45.827 13.192L27.95 4.79501ZM27.95 31.483L0 18.55L0 23.334L27.95 36.298L56 23.289L56 18.505L27.95 31.483ZM0 28.25L27.95 41.186L56 28.206L56 32.99L27.95 46L0 33.033L0 28.25Z" transform="translate(0 0.9710083)" id="Shape" fill="#FFFFFF" fill-rule="evenodd" stroke="none" />
      <g id="Group" transform="translate(72.01501 0)">
        <path d="M62.528 37.456C63.1185 37.3235 63.6933 37.1291 64.243 36.876L64.243 31.614C63.56 32.06 62.847 32.283 62.105 32.283C61.511 32.283 60.998 32.082 60.568 31.681C60.137 31.28 59.922 30.544 59.922 29.474L59.922 0L53.373 0L53.373 30.589C53.373 31.866 53.566 32.959 53.951 33.866C54.338 34.773 54.858 35.508 55.511 36.073C56.1772 36.6445 56.9606 37.063 57.806 37.299C58.6969 37.5537 59.6194 37.6813 60.546 37.678C61.228 37.678 61.89 37.604 62.528 37.456ZM6.771 7.313L23.524 7.313L23.524 1.383L0 1.383L0 37.009L6.77 37.009L6.77 21.225L23.3 21.225L23.3 15.607L6.771 15.607L6.771 7.313ZM93.9589 24.1229C93.9589 26.0549 93.6019 27.8459 92.8889 29.4959C92.2044 31.1045 91.2048 32.5598 89.9489 33.7759C88.7019 34.9809 87.2389 35.9319 85.5609 36.6299C83.8829 37.3289 82.0929 37.6779 80.1919 37.6779C78.2919 37.6779 76.5089 37.3289 74.8459 36.6299C73.2214 35.9568 71.7397 34.9808 70.4799 33.7539C69.2269 32.5269 68.2279 31.0651 67.5399 29.4519C66.8269 27.8019 66.4699 26.0259 66.4699 24.1229C66.4699 22.2499 66.8339 20.4889 67.5619 18.8389C68.2665 17.2227 69.2716 15.755 70.5239 14.5139C71.7791 13.2753 73.262 12.2913 74.8909 11.6159C76.5697 10.9143 78.3725 10.5579 80.1919 10.5679C82.0929 10.5679 83.8819 10.9179 85.5609 11.6159C87.2389 12.3139 88.7009 13.2659 89.9489 14.4699C91.1969 15.6739 92.1769 17.1079 92.8889 18.7719C93.6019 20.4369 93.9589 22.2209 93.9589 24.1229ZM50.477 11.191L50.4766 11.192L43.572 11.192L38.002 27.78L32.077 11.192L25.082 11.192L35.017 36.965L34.126 39.551C33.68 40.8 33.042 41.655 32.21 42.115C31.378 42.576 30.458 42.806 29.448 42.806C28.973 42.806 28.468 42.739 27.934 42.605C27.3971 42.4706 26.8746 42.2841 26.374 42.048L28.512 48.023C28.8485 48.1142 29.191 48.1814 29.537 48.224C29.894 48.268 30.22 48.29 30.517 48.29C32.447 48.29 34.111 47.785 35.507 46.775C36.903 45.764 38.032 44.114 38.893 41.825L50.4766 11.192L50.477 11.192L50.477 11.191ZM85.3839 18.5499C86.7884 20.0641 87.5615 22.0576 87.545 24.123L87.5439 24.1229C87.561 26.1884 86.7883 28.1823 85.3839 29.6969C84.7236 30.4046 83.9283 30.9731 83.0449 31.3689C82.1529 31.7709 81.2029 31.9709 80.1929 31.9709C79.2105 31.9766 78.2382 31.7713 77.3419 31.3689C76.4582 30.9733 75.6626 30.4048 75.002 29.6969C73.598 28.1824 72.8254 26.189 72.8419 24.1239C72.8251 22.0585 73.5977 20.0647 75.0019 18.5499C75.6625 17.8417 76.4581 17.2728 77.3419 16.8769C78.2329 16.4759 79.1839 16.2759 80.1939 16.2759C81.176 16.27 82.1479 16.475 83.0439 16.8769C83.9277 17.2729 84.7233 17.8417 85.3839 18.5499Z" id="Shape" fill="#FFFFFF" fill-rule="evenodd" stroke="none" />
      </g>
    </g>
  </g>
</svg>